<svg xmlns="http://www.w3.org/2000/svg" version="1.1" xmlns:xlink="http://www.w3.org/1999/xlink" xmlns:svgjs="http://svgjs.dev/svgjs" width="64" height="64"><svg width="64" height="64" viewBox="0 0 64 64" xmlns="http://www.w3.org/2000/svg" fill="#000000">
  <!-- Map Pin Icon -->
  <path d="M32 3c-11.6 0-21 9.4-21 21 0 10.6 17.5 33.3 19.4 35.9a2 2 0 0 0 3.2 0C35.5 57.3 53 34.6 53 24 53 12.4 43.6 3 32 3zm0 52c-4.1-5.5-17-23.6-17-31 0-9.4 7.6-17 17-17s17 7.6 17 17c0 7.4-12.9 25.5-17 31z"></path>
  <!-- Chat Bubble Element -->
  <rect x="25" y="22" width="14" height="10" rx="2" ry="2" fill="#ffffff"></rect>
  <circle cx="29" cy="27" r="1.5" fill="#000000"></circle>
  <circle cx="35" cy="27" r="1.5" fill="#000000"></circle>
  <circle cx="41" cy="27" r="1.5" fill="#000000"></circle>
</svg><style>@media (prefers-color-scheme: light) { :root { filter: none; } }
@media (prefers-color-scheme: dark) { :root { filter: none; } }
</style></svg>